<svg t="1785813307128" class="icon" viewBox="0 0 1024 1024" version="1.1" xmlns="http://www.w3.org/2000/svg" p-id="2006" width="200" height="200"><path d="M412.536097 982.79954L41.20046 611.463903c-54.933946-54.931946-54.933946-143.995859 0-198.927806L412.536097 41.20046c54.931946-54.933946 143.995859-54.933946 198.927806 0L982.79954 412.536097c54.933946 54.931946 54.933946 143.995859 0 198.927806L611.463903 982.79954c-54.931946 54.933946-143.995859 54.933946-198.927806 0z m145.577858-226.659778l-11.175989-204.9538c-46.533955 35.631965-187.845817 41.843959-245.265761 0l-11.173989 204.7398c4.379996 63.709938 266.27174 62.413939 267.615739 0.214z m-211.809793-169.679835c-9.631991-2.495998-18.311982-5.427995-25.789975-8.733991l-9.203991 188.363816c8.803991 4.937995 20.05998 9.251991 33.197968 12.717987l1.795998-192.347812z m77.099925-85.559916l-44.977957-124.573879h-47.401953v131.915872c7.647993 2.643997 17.151983 4.947995 28.147972 6.813993v-93.563909l37.235964 97.715905c18.095982 1.151999 35.305966 1.289999 51.733949 0.531999l40.419961-97.957904v94.257908c11.105989-1.639998 20.999979-3.693996 29.323971-6.085994v-133.62787h-46.799954l-47.679953 124.573879z m2.063998 29.247971c-87.021915 0.508-168.381836-23.463977-119.979883-50.119951v-31.145969c-70.313931 10.08399-97.099905 27.051974-97.099906 46.291954 0 30.93397 96.569906 56.011945 216.871789 56.011946s219.671785-25.077976 219.671785-56.011946c0-19.239981-37.095964-36.207965-93.345909-46.291954v31.145969c35.283966 23.003978-16.225984 48.709952-126.119876 50.119951z m440.727569 85.275917l13.681987-13.681987a10.10599 10.10599 0 0 0 0-14.251986L514.127998 221.738283c-4.229996-4.169996-10.13199-3.719996-14.251986 0l-13.681987 13.683987c-3.919996 3.919996-3.919996 10.33199 0 14.251986l365.749643 365.749643c4.313996 4.359996 10.929989 3.511997 14.251986 0z m-288.039719-288.813718l13.683987-13.423987-84.837917-85.353916-13.681987 13.679986 84.835917 85.097917z m-107.349895-22.499978h-33.109967V271.000235h-22.071979v33.109968h-33.107968v22.071978h33.107968v33.107968h22.071979v-33.107968h33.109967v-22.071978z m32.495968-180.333824h-33.107967V90.668411h-22.071979v33.107968h-33.109967v22.073979h33.109967v33.107967h22.071979V145.850358h33.107967V123.776379z m185.775819 105.507897v-22.071978h-88.289914v22.071978h88.289914z" fill="#F5491D" p-id="2007"></path></svg>