<svg width="256" height="256" viewBox="0 0 256 256" fill="none" xmlns="http://www.w3.org/2000/svg">
  <defs>
    <linearGradient id="surface" x1="46" y1="34" x2="210" y2="222" gradientUnits="userSpaceOnUse">
      <stop offset="0" stop-color="#17262B"/>
      <stop offset="0.55" stop-color="#101A20"/>
      <stop offset="1" stop-color="#081014"/>
    </linearGradient>

    <linearGradient id="surfaceLight" x1="54" y1="45" x2="212" y2="172" gradientUnits="userSpaceOnUse">
      <stop offset="0" stop-color="#FFFFFF" stop-opacity="0.12"/>
      <stop offset="0.52" stop-color="#B8F3FF" stop-opacity="0.035"/>
      <stop offset="1" stop-color="#FFFFFF" stop-opacity="0"/>
    </linearGradient>

    <linearGradient id="sheet" x1="86" y1="56" x2="174" y2="190" gradientUnits="userSpaceOnUse">
      <stop offset="0" stop-color="#F1FDFF"/>
      <stop offset="0.28" stop-color="#C9F7FF"/>
      <stop offset="0.66" stop-color="#88DAE8"/>
      <stop offset="1" stop-color="#6A9AEF"/>
    </linearGradient>

    <linearGradient id="sheetSide" x1="137" y1="65" x2="183" y2="166" gradientUnits="userSpaceOnUse">
      <stop offset="0" stop-color="#FFFFFF" stop-opacity="0.42"/>
      <stop offset="1" stop-color="#FFFFFF" stop-opacity="0.02"/>
    </linearGradient>

    <linearGradient id="lineWarm" x1="92" y1="104" x2="156" y2="112" gradientUnits="userSpaceOnUse">
      <stop offset="0" stop-color="#FFD98A"/>
      <stop offset="1" stop-color="#FF8C9A"/>
    </linearGradient>

    <linearGradient id="lineCool" x1="98" y1="141" x2="157" y2="149" gradientUnits="userSpaceOnUse">
      <stop offset="0" stop-color="#74E8C9"/>
      <stop offset="1" stop-color="#69C3FF"/>
    </linearGradient>

    <filter id="cardShadow" x="28" y="25" width="200" height="208" filterUnits="userSpaceOnUse">
      <feDropShadow dx="0" dy="16" stdDeviation="16" flood-color="#020617" flood-opacity="0.36"/>
    </filter>

    <filter id="sheetGlow" x="54" y="34" width="154" height="180" filterUnits="userSpaceOnUse">
      <feDropShadow dx="0" dy="12" stdDeviation="10" flood-color="#7DD3FC" flood-opacity="0.28"/>
      <feDropShadow dx="0" dy="2" stdDeviation="3" flood-color="#E0F7FF" flood-opacity="0.30"/>
    </filter>

    <clipPath id="surfaceClip">
      <rect x="42" y="36" width="172" height="184" rx="44"/>
    </clipPath>

    <clipPath id="sheetClip">
      <path d="M84.4 61.2C85.3 54.4 93.1 51.2 98.7 55.2L179.6 113.6C184.1 116.8 185 123.2 181.4 127.5L115.5 204.4C110.4 210.4 100.8 206.3 101.6 198.5L107.1 142.8L81.8 127.1C78.2 124.9 76.2 120.7 76.8 116.5L84.4 61.2Z"/>
    </clipPath>
  </defs>

  <rect x="42" y="36" width="172" height="184" rx="44" fill="url(#surface)" filter="url(#cardShadow)"/>
  <rect x="44.5" y="38.5" width="167" height="179" rx="41.5" stroke="#FFFFFF" stroke-opacity="0.07" stroke-width="5"/>

  <g clip-path="url(#surfaceClip)">
    <path d="M42 37H214V128C157 94 98 96 42 127V37Z" fill="url(#surfaceLight)"/>
    <path d="M42 164C76 135 124 128 214 153V220H42V164Z" fill="#0D2A30" opacity="0.52"/>
    <path d="M61 190C91 177 145 176 178 188" stroke="#A7F3D0" stroke-opacity="0.16" stroke-width="7" stroke-linecap="round"/>
    <path d="M162 68C180 80 194 98 199 120" stroke="#B7F4FF" stroke-opacity="0.20" stroke-width="7" stroke-linecap="round"/>
  </g>

  <g filter="url(#sheetGlow)">
    <path
      d="M84.4 61.2C85.3 54.4 93.1 51.2 98.7 55.2L179.6 113.6C184.1 116.8 185 123.2 181.4 127.5L115.5 204.4C110.4 210.4 100.8 206.3 101.6 198.5L107.1 142.8L81.8 127.1C78.2 124.9 76.2 120.7 76.8 116.5L84.4 61.2Z"
      fill="url(#sheet)"
    />

    <g clip-path="url(#sheetClip)">
      <path d="M122 51L181 93L116 208L107 142L122 51Z" fill="url(#sheetSide)"/>
      <path d="M92 83L150 89" stroke="#14343B" stroke-opacity="0.22" stroke-width="7" stroke-linecap="round"/>
      <path d="M91 104L156 111" stroke="url(#lineWarm)" stroke-width="8" stroke-linecap="round"/>
      <path d="M94 125L163 132" stroke="#14343B" stroke-opacity="0.20" stroke-width="7" stroke-linecap="round"/>
      <path d="M104 146L156 151" stroke="url(#lineCool)" stroke-width="8" stroke-linecap="round"/>
      <path d="M111 166L143 169" stroke="#14343B" stroke-opacity="0.18" stroke-width="7" stroke-linecap="round"/>
    </g>

    <path
      d="M84.4 61.2C85.3 54.4 93.1 51.2 98.7 55.2L179.6 113.6C184.1 116.8 185 123.2 181.4 127.5L115.5 204.4C110.4 210.4 100.8 206.3 101.6 198.5L107.1 142.8L81.8 127.1C78.2 124.9 76.2 120.7 76.8 116.5L84.4 61.2Z"
      stroke="#E9FDFF"
      stroke-opacity="0.76"
      stroke-width="4"
      stroke-linejoin="round"
    />
  </g>
</svg>
