<?xml version="1.0" standalone="no"?><!DOCTYPE svg PUBLIC "-//W3C//DTD SVG 1.1//EN" "http://www.w3.org/Graphics/SVG/1.1/DTD/svg11.dtd"><svg t="1777459372822" class="icon" viewBox="0 0 1024 1024" version="1.1" xmlns="http://www.w3.org/2000/svg" p-id="18930" xmlns:xlink="http://www.w3.org/1999/xlink" width="200" height="200"><path d="M874.3 621H397.7c-45.7 0-82.7-37-82.7-82.7V82.7C315 37 352 0 397.7 0h476.6C920 0 957 37 957 82.7v455.6c0 45.7-37 82.7-82.7 82.7z" fill="#B8EADA" p-id="18931"></path><path d="M597.2 1024H182.6c-6.6 0-41.9-0.7-70.4-29.2-18-18-29.2-42.9-29.2-70.4V188.5c0-55 44.6-99.5 99.5-99.5h569.9c55 0 99.5 44.6 99.5 99.5v562.2C597 1024 852 751 597.2 1024z" fill="#24C891" p-id="18932"></path><path d="M597 1024l-1-171.9c0-55.8 45.3-101.1 101.1-101.1H852l-255 273z" fill="#11A572" p-id="18933"></path><path d="M852 751v172.3c0 55.6-45.1 100.7-100.7 100.7H597l255-273zM704.5 607h-465c-14.6 0-26.5-11.9-26.5-26.5s11.9-26.5 26.5-26.5h465c14.6 0 26.5 11.9 26.5 26.5S719.1 607 704.5 607zM704.5 740h-465c-14.6 0-26.5-11.9-26.5-26.5s11.9-26.5 26.5-26.5h465c14.6 0 26.5 11.9 26.5 26.5S719.1 740 704.5 740z" fill="#B8EADA" p-id="18934"></path></svg>