<svg t="1777459976399" class="icon" viewBox="0 0 1024 1024" version="1.1" xmlns="http://www.w3.org/2000/svg" p-id="21137" width="200" height="200"><path d="M227 90c-35.84 0-64 29.44-64 65.28v688.64c0 35.84 28.16 65.28 64 65.28h586.24c35.84 0 65.279-29.44 65.279-65.28V349.84L636.6 90H227z" fill="#24A26D" p-id="21138"></path><path d="M291 570v209.92h275.199V570H291z m83.2 192h-64v-44.8h64V762z m0-64h-64v-44.8h64V698z m0-64h-64v-46.08h64V634z m174.079 128H392.12v-44.8h156.159V762z m0-64H392.12v-44.8h156.159V698z m0-64H392.12v-46.08h156.159V634z" fill="#FFFFFF" p-id="21139"></path><path d="M860.52 357.84v12.8H696.68s-80.641-15.36-78.08-85.76c0 0 2.561 72.96 76.801 72.96H860.52z" fill="#1E8C53" p-id="21140"></path><path d="M618.6 98l241.92 259.84H696.68c-64 0-78.08-52.48-78.08-74.24V98z" fill="#FFFFFF" p-id="21141"></path></svg>