<svg t="1755486858676" class="icon" viewBox="0 0 1024 1024" version="1.1" xmlns="http://www.w3.org/2000/svg" p-id="4934" width="200" height="200">
  <path d="M197.276735 416.705306a31.346939 31.346939 0 0 1-2.173388 41.942204l2.15249 2.382368 292.571428 292.571428a31.346939 31.346939 0 0 1 46.497959-41.963102l-2.152489-2.382367-292.571429-292.571429a31.346939 31.346939 0 0 1-44.345469 0z" fill="#000000" p-id="4935"></path>
  <path d="M489.848163 709.276735a31.346939 31.346939 0 0 1 41.942204 46.477061l2.382368-2.15249 292.571428-292.571428a31.346939 31.346939 0 0 1-41.963102-46.49796l-2.382367 2.15249-292.571429 292.571429z" fill="#000000" p-id="4936"></path>
  <path d="M512 744.886857a31.346939 31.346939 0 0 1 31.200653-28.316735l0.146286-3.030204v-585.142857a31.346939 31.346939 0 0 1-62.547592-3.009306l-0.146286 3.009306v585.142857a31.346939 31.346939 0 0 1 31.346939 31.346939zM762.77551 815.020408a31.346939 31.346939 0 0 1 3.009306-62.547592L762.77551 752.326531H261.22449a31.346939 31.346939 0 0 1-3.009306 62.547591L261.22449 815.020408h501.55102z" fill="#000000" p-id="4937"></path>
</svg>