<svg width="16" height="16" viewBox="0 0 16 16" xmlns="http://www.w3.org/2000/svg" fill="currentColor">
  <path d="M3.5 3H12.5C12.7761 3 13 2.77614 13 2.5C13 2.25446 12.8231 2.05039 12.5899 2.00806L12.5 2H3.5C3.22386 2 3 2.22386 3 2.5C3 2.74554 3.17688 2.94961 3.41012 2.99194L3.5 3ZM7.91012 14.9919L8 15C8.24546 15 8.44961 14.8231 8.49194 14.5899L8.5 14.5V5.708L11.182 8.38909C11.3555 8.56265 11.625 8.58194 11.8198 8.44694L11.8891 8.38909C12.0627 8.21552 12.0819 7.9461 11.9469 7.75123L11.8891 7.68198L8.35355 4.14645C8.17999 3.97289 7.91056 3.9536 7.71569 4.08861L7.64645 4.14645L4.11091 7.68198C3.91565 7.87724 3.91565 8.19383 4.11091 8.38909C4.28448 8.56265 4.5539 8.58194 4.74877 8.44694L4.81802 8.38909L7.5 5.708V14.5C7.5 14.7455 7.67688 14.9496 7.91012 14.9919Z"/>
</svg>